<?xml version="1.0" encoding="iso-8859-1"?>
<!-- Generator: Adobe Illustrator 19.0.0, SVG Export Plug-In . SVG Version: 6.00 Build 0)  -->
<svg version="1.1" id="Capa_1" xmlns="http://www.w3.org/2000/svg" xmlns:xlink="http://www.w3.org/1999/xlink" x="0px" y="0px"
	 viewBox="0 0 512 512" style="enable-background:new 0 0 512 512;" xml:space="preserve">
<g>
	<g>
		<path d="M462,222h-72V60c0-33.084-26.916-60-60-60H60C26.916,0,0,26.916,0,60v270c0,33.084,26.916,60,60,60h162v72
			c0,27.57,22.43,50,50,50h190c27.57,0,50-22.43,50-50V272C512,244.43,489.57,222,462,222z M222,272v78H60c-11.028,0-20-8.972-20-20
			V60c0-11.028,8.972-20,20-20h270c11.028,0,20,8.972,20,20v162h-78C244.43,222,222,244.43,222,272z M472,462
			c0,5.514-4.486,10-10,10H272c-5.514,0-10-4.486-10-10V272c0-5.514,4.486-10,10-10h190c5.514,0,10,4.486,10,10V462z"/>
	</g>
</g>
<g>
</g>
<g>
</g>
<g>
</g>
<g>
</g>
<g>
</g>
<g>
</g>
<g>
</g>
<g>
</g>
<g>
</g>
<g>
</g>
<g>
</g>
<g>
</g>
<g>
</g>
<g>
</g>
<g>
</g>
</svg>
