<svg width="680" height="413" viewBox="0 0 680 413" fill="none" xmlns="http://www.w3.org/2000/svg">
<path d="M516.941 367.462C601.975 367.462 670.907 300.279 670.907 217.405C670.907 134.531 601.975 67.3481 516.941 67.3481C431.908 67.3481 362.976 134.531 362.976 217.405C362.976 300.279 431.908 367.462 516.941 367.462Z" fill="#F2F2F2"/>
<path d="M83.5329 114.61C116.006 114.61 142.331 88.954 142.331 57.3052C142.331 25.6564 116.006 0 83.5329 0C51.0597 0 24.7349 25.6564 24.7349 57.3052C24.7349 88.954 51.0597 114.61 83.5329 114.61Z" fill="#FF6584"/>
<path d="M189.006 307.793C274.039 307.793 342.972 240.611 342.972 157.737C342.972 74.8625 274.039 7.67981 189.006 7.67981C103.973 7.67981 35.04 74.8625 35.04 157.737C35.04 240.611 103.973 307.793 189.006 307.793Z" fill="#F2F2F2"/>
<path d="M181.732 316.065C275.134 316.065 350.852 312.097 350.852 307.203C350.852 302.309 275.134 298.341 181.732 298.341C88.3295 298.341 12.6118 302.309 12.6118 307.203C12.6118 312.097 88.3295 316.065 181.732 316.065Z" fill="#3F3D56"/>
<path opacity="0.1" d="M147.787 313.62C217.755 313.62 274.475 310.884 274.475 307.509C274.475 304.133 217.755 301.397 147.787 301.397C77.8186 301.397 21.0981 304.133 21.0981 307.509C21.0981 310.884 77.8186 313.62 147.787 313.62Z" fill="black"/>
<path d="M510.88 378.687C604.282 378.687 680 374.323 680 368.939C680 363.555 604.282 359.191 510.88 359.191C417.477 359.191 341.76 363.555 341.76 368.939C341.76 374.323 417.477 378.687 510.88 378.687Z" fill="#3F3D56"/>
<path opacity="0.1" d="M476.935 375.998C546.903 375.998 603.623 372.988 603.623 369.275C603.623 365.562 546.903 362.552 476.935 362.552C406.967 362.552 350.246 365.562 350.246 369.275C350.246 372.988 406.967 375.998 476.935 375.998Z" fill="black"/>
<path d="M243.014 351.511C302.618 351.511 350.937 349.131 350.937 346.194C350.937 343.258 302.618 340.877 243.014 340.877C183.409 340.877 135.09 343.258 135.09 346.194C135.09 349.131 183.409 351.511 243.014 351.511Z" fill="#3F3D56"/>
<path d="M52.0714 331.036C80.8297 331.036 104.143 329.888 104.143 328.471C104.143 327.054 80.8297 325.906 52.0714 325.906C23.3132 325.906 0 327.054 0 328.471C0 329.888 23.3132 331.036 52.0714 331.036Z" fill="#3F3D56"/>
<path d="M577.631 413C631.155 413 674.545 410.862 674.545 408.225C674.545 405.589 631.155 403.451 577.631 403.451C524.108 403.451 480.718 405.589 480.718 408.225C480.718 410.862 524.108 413 577.631 413Z" fill="#3F3D56"/>
<path d="M567.253 255.806H373.28V368.053H567.253V255.806Z" fill="#3F3D56"/>
<path d="M435.715 355.647C459.819 355.647 479.359 336.603 479.359 313.111C479.359 289.619 459.819 270.575 435.715 270.575C411.611 270.575 392.071 289.619 392.071 313.111C392.071 336.603 411.611 355.647 435.715 355.647Z" fill="#0075FF"/>
<path d="M507.243 273.529H492.695V287.707H507.243V273.529Z" fill="#0075FF"/>
<path opacity="0.5" d="M525.428 273.529H510.88V287.707H525.428V273.529Z" fill="#0075FF"/>
<path opacity="0.2" d="M543.613 273.529H529.065V287.707H543.613V273.529Z" fill="#0075FF"/>
<path d="M507.243 291.252H492.695V305.431H507.243V291.252Z" fill="#2F2E41"/>
<path opacity="0.5" d="M525.428 291.252H510.88V305.431H525.428V291.252Z" fill="#2F2E41"/>
<path opacity="0.2" d="M543.613 291.252H529.065V305.431H543.613V291.252Z" fill="#2F2E41"/>
<path d="M507.243 308.975H492.695V323.154H507.243V308.975Z" fill="#FF6584"/>
<path opacity="0.5" d="M525.428 308.975H510.88V323.154H525.428V308.975Z" fill="#FF6584"/>
<path opacity="0.2" d="M543.613 308.975H529.065V323.154H543.613V308.975Z" fill="#FF6584"/>
<path opacity="0.5" d="M435.715 270.575V355.647C459.819 355.647 480.572 336.603 480.572 313.111C480.572 289.619 459.819 270.575 435.715 270.575Z" fill="#363171"/>
<path d="M608.776 263.781C608.776 263.781 634.235 275.006 625.142 288.003C616.05 301 588.772 325.812 588.166 331.129C587.56 336.446 583.923 341.173 583.923 341.173C583.923 341.173 571.8 328.766 573.012 327.585C574.224 326.403 586.348 315.178 586.954 312.225C587.56 309.271 605.745 286.23 605.745 286.23L589.378 272.052L608.776 263.781Z" fill="#FFB9B9"/>
<path opacity="0.1" d="M608.776 263.781C608.776 263.781 634.235 275.006 625.142 288.003C616.05 301 588.772 325.812 588.166 331.129C587.56 336.446 583.923 341.173 583.923 341.173C583.923 341.173 571.8 328.766 573.012 327.585C574.224 326.403 586.348 315.178 586.954 312.225C587.56 309.271 605.745 286.23 605.745 286.23L589.378 272.052L608.776 263.781Z" fill="black"/>
<path d="M576.649 288.594C576.649 288.594 594.228 295.683 593.015 306.908C591.803 318.132 614.231 350.034 614.231 350.034C614.231 350.034 616.656 357.714 616.05 360.077C615.444 362.44 631.81 361.85 631.81 361.85V356.533C631.81 356.533 619.081 335.265 617.868 329.357C616.656 323.449 609.382 300.409 609.382 300.409C609.382 300.409 606.957 279.732 594.834 279.732C591.305 279.732 587.825 280.533 584.668 282.071C581.512 283.609 578.766 285.842 576.649 288.594Z" fill="#FFB9B9"/>
<path d="M577.558 235.128C577.558 235.128 613.928 264.076 612.716 266.439C611.503 268.803 593.925 277.664 590.894 278.255C587.863 278.846 566.418 235.128 566.418 235.128H577.558Z" fill="#2F2E41"/>
<path opacity="0.1" d="M577.558 235.128C577.558 235.128 613.928 264.076 612.716 266.439C611.503 268.803 593.925 277.664 590.894 278.255C587.863 278.846 566.418 235.128 566.418 235.128H577.558Z" fill="black"/>
<path d="M538.157 241.036C538.157 241.036 534.52 256.987 544.219 263.486C553.918 269.984 570.284 295.387 572.103 295.387C573.921 295.387 599.986 281.8 598.774 279.437C597.561 277.073 584.226 256.396 584.226 256.396L579.983 234.538C579.983 234.538 543.007 233.356 538.157 241.036Z" fill="#2F2E41"/>
<path d="M577.558 189.048L583.014 223.313L592.712 247.535C592.712 247.535 607.26 262.304 598.774 263.486C590.288 264.667 585.438 247.535 585.438 247.535L577.558 233.356V189.048Z" fill="#FFB9B9"/>
<path opacity="0.1" d="M577.558 189.048L583.014 223.313L592.712 247.535C592.712 247.535 607.26 262.304 598.774 263.486C590.288 264.667 585.438 247.535 585.438 247.535L577.558 233.356V189.048Z" fill="black"/>
<path d="M557.251 150.943C557.251 150.943 557.251 163.349 553.008 164.531C548.765 165.712 569.981 181.663 569.981 181.663C569.981 181.663 567.556 160.986 576.043 155.669L557.251 150.943Z" fill="#FFB9B9"/>
<path opacity="0.1" d="M557.251 150.943C557.251 150.943 557.251 163.349 553.008 164.531C548.765 165.712 569.981 181.663 569.981 181.663C569.981 181.663 567.556 160.986 576.043 155.669L557.251 150.943Z" fill="black"/>
<path d="M566.95 160.986C574.65 160.986 580.892 154.903 580.892 147.398C580.892 139.894 574.65 133.811 566.95 133.811C559.25 133.811 553.008 139.894 553.008 147.398C553.008 154.903 559.25 160.986 566.95 160.986Z" fill="#FFB9B9"/>
<path d="M567.556 175.756C567.556 175.756 554.827 160.395 553.008 160.986C551.19 161.577 537.854 174.574 536.642 178.709C535.429 182.845 533.005 212.384 534.823 218.291C536.642 224.199 536.642 239.559 536.036 240.741C535.429 241.922 531.792 244.876 535.429 244.876C539.066 244.876 551.796 236.015 560.282 237.787C568.768 239.559 580.286 237.196 580.892 236.015C581.498 234.833 580.286 204.113 580.892 201.75C581.498 199.387 579.679 187.571 579.073 185.208C578.467 182.845 578.467 173.392 572.405 171.029L569.821 170.78L569.676 176.624L567.556 175.756Z" fill="#000AFF"/>
<path d="M540.885 206.476C540.885 206.476 542.097 224.79 551.19 232.47C560.282 240.15 579.679 253.147 580.892 255.51C582.104 257.873 593.621 270.28 596.046 264.963C596.75 263.305 596.919 261.478 596.532 259.724C596.18 257.981 595.466 256.327 594.433 254.862C593.401 253.398 592.072 252.155 590.529 251.21L585.135 247.83L558.464 220.654L557.251 206.476H540.885Z" fill="#FFB9B9"/>
<path d="M575.74 325.517C575.74 325.517 568.769 324.04 566.344 328.175C563.919 332.311 568.769 343.536 568.769 343.536C568.769 343.536 582.71 371.893 585.135 368.348C587.56 364.804 583.317 351.806 583.317 351.806C583.317 351.806 589.378 338.809 586.954 338.219C584.529 337.628 575.74 332.606 575.74 325.517Z" fill="#2F2E41"/>
<path d="M618.474 359.487C618.474 359.487 614.837 357.714 614.231 359.487C613.625 361.259 609.988 370.121 614.231 371.302C618.474 372.484 660.3 373.665 659.087 371.302C657.875 368.939 651.207 365.985 646.964 364.804C642.721 363.622 631.81 354.76 631.81 354.76C631.81 354.76 625.748 362.44 618.474 359.487Z" fill="#2F2E41"/>
<path d="M580.995 136.614C580.733 135.757 580.157 135.024 579.375 134.554C579.416 133.636 579.3 132.717 579.034 131.836C578.143 129.269 576.033 129.416 574.041 128.281C573.178 127.789 573.231 127.354 572.781 126.545C572.192 125.485 571.309 124.608 570.234 124.012C568.956 123.219 567.608 122.402 566.097 122.302C562.921 122.091 560.486 125.002 557.451 125.936C556.113 126.348 554.676 126.365 553.331 126.754C551.986 127.144 550.644 128.073 550.444 129.426C550.351 130.051 550.514 130.692 550.421 131.317C550.234 132.558 549.116 133.428 548.368 134.449C546.714 136.707 546.903 139.897 548.226 142.354C548.505 142.862 548.824 143.349 549.18 143.809C549.291 144.97 549.633 146.099 550.187 147.132C551.51 149.589 553.787 151.425 556.165 152.95C555.97 152.135 555.852 151.305 555.812 150.469C555.779 150.191 555.816 149.909 555.921 149.647C556.185 149.108 556.885 148.964 557.419 148.669C558.524 148.057 558.957 146.702 558.989 145.464C559.021 144.225 558.752 142.985 558.885 141.753C558.89 141.469 558.956 141.19 559.079 140.933C559.202 140.676 559.378 140.447 559.597 140.261C560.005 140.034 560.471 139.926 560.94 139.949C563.205 139.859 565.57 139.818 567.568 138.775C568.212 138.358 568.904 138.016 569.631 137.758C571.328 137.326 573.063 138.486 574.041 139.905C575.019 141.324 575.507 143.013 576.41 144.479C577.312 145.945 578.871 147.252 580.616 147.078C580.715 147.079 580.812 147.059 580.902 147.02C580.992 146.981 581.072 146.924 581.138 146.853C581.213 146.721 581.246 146.57 581.234 146.42L581.331 139.919C581.412 138.806 581.298 137.689 580.995 136.614Z" fill="#2F2E41"/>
<path d="M546.341 176.346C546.341 176.346 559.676 182.254 559.07 194.66C558.464 207.067 562.707 208.248 552.402 209.43C542.097 210.611 539.673 209.43 539.067 210.611C538.46 211.793 534.823 183.436 537.248 180.482C539.673 177.528 546.341 176.346 546.341 176.346Z" fill="#0075FF"/>
<path d="M278.112 76.21C288.825 76.21 297.509 67.746 297.509 57.3052C297.509 46.8643 288.825 38.4004 278.112 38.4004C267.399 38.4004 258.715 46.8643 258.715 57.3052C258.715 67.746 267.399 76.21 278.112 76.21Z" fill="#2F2E41"/>
<path d="M291.145 264.372L280.234 293.32C280.234 293.32 271.142 300.409 276.597 302.772C282.053 305.135 292.964 300.409 292.964 300.409L301.45 279.141L300.238 264.372H291.145Z" fill="#2F2E41"/>
<path opacity="0.1" d="M291.145 264.372L280.234 293.32C280.234 293.32 271.142 300.409 276.597 302.772C282.053 305.135 292.964 300.409 292.964 300.409L301.45 279.141L300.238 264.372H291.145Z" fill="black"/>
<path d="M292.054 92.7516L301.147 93.9332C301.147 93.9332 305.39 126.426 303.572 128.789C301.753 131.152 292.661 140.604 289.024 138.241C285.387 135.878 292.054 92.7516 292.054 92.7516Z" fill="#575A89"/>
<path d="M205.069 152.125C205.069 152.125 192.34 157.442 189.915 158.032C187.491 158.623 183.854 164.531 188.097 165.712C192.34 166.894 208.706 155.078 208.706 155.078L205.069 152.125Z" fill="#A0616A"/>
<path d="M295.388 276.187L302.056 300.409C302.056 300.409 302.662 309.271 305.693 309.861C308.724 310.452 317.816 306.908 317.816 305.726C317.816 304.544 314.179 295.092 314.179 295.092C314.179 295.092 314.179 288.003 310.542 285.049C306.905 282.095 303.629 272.2 303.629 272.2L295.388 276.187Z" fill="#2F2E41"/>
<path d="M303.874 220.654C305.099 223.437 304.947 243.624 303.608 257.058C302.959 263.586 302.031 268.519 300.843 269.098L292.157 266.983L288.72 266.144L288.629 258.795L288.114 218.291L277.809 176.346V165.712L303.874 168.075L308.008 174.403L308.117 174.574C308.117 174.574 302.056 216.519 303.874 220.654Z" fill="#2F2E41"/>
<path opacity="0.1" d="M298.419 233.651C299.716 235.548 301.88 246.903 303.608 257.058C302.959 263.586 302.031 268.519 300.843 269.098L292.157 266.983C292.024 266.711 291.89 266.428 291.751 266.144C290.642 263.876 289.599 261.371 288.629 258.795L288.114 218.291L277.809 176.346V165.712L303.874 168.075L308.008 174.403L283.871 172.802L289.326 195.842L295.994 220.064C295.994 220.064 295.994 230.107 298.419 233.651Z" fill="black"/>
<path d="M255.381 142.081C255.381 142.081 246.895 160.395 259.018 185.799C266.52 201.607 273.197 217.776 279.022 234.242C279.022 234.242 283.265 253.738 289.327 266.144C295.388 278.55 294.176 279.141 294.176 279.141L303.875 273.824C303.875 273.824 298.419 237.196 295.994 233.651C293.57 230.107 293.57 220.064 293.57 220.064L286.902 195.842L281.446 172.802L308.118 174.574C308.118 174.574 308.118 140.9 295.994 134.401L255.381 142.081Z" fill="#2F2E41"/>
<path d="M265.383 66.1668C265.383 66.1668 265.383 75.6192 262.352 76.21C259.321 76.8008 253.26 76.8008 251.441 79.7546C249.623 82.7085 265.383 121.7 265.383 121.7L281.749 111.656L287.205 85.0716C287.205 85.0716 279.325 80.3454 279.325 77.9823V67.3484L265.383 66.1668Z" fill="#A0616A"/>
<path opacity="0.1" d="M265.383 66.1668C265.383 66.1668 265.383 75.6192 262.352 76.21C259.321 76.8008 253.26 76.8008 251.441 79.7546C249.623 82.7085 265.383 121.7 265.383 121.7L281.749 111.656L287.205 85.0716C287.205 85.0716 279.325 80.3454 279.325 77.9823V67.3484L265.383 66.1668Z" fill="black"/>
<path d="M274.778 76.5054C282.813 76.5054 289.326 70.1574 289.326 62.3268C289.326 54.4961 282.813 48.1482 274.778 48.1482C266.744 48.1482 260.23 54.4961 260.23 62.3268C260.23 70.1574 266.744 76.5054 274.778 76.5054Z" fill="#A0616A"/>
<path d="M267.201 109.884C267.201 109.884 261.746 76.21 260.533 76.21C259.321 76.21 242.348 79.7546 241.136 80.3454C239.924 80.9362 235.681 86.2531 235.681 86.2531L244.167 109.884C244.167 109.884 247.804 126.426 250.229 129.38C252.653 132.334 257.503 140.604 255.078 141.786C252.653 142.968 250.229 144.74 252.653 144.74C255.078 144.74 275.081 141.195 276.294 142.968C277.506 144.74 297.51 136.469 297.51 135.878C297.51 135.287 295.085 107.521 295.085 107.521L301.147 93.9332L282.962 81.5269L267.201 109.884Z" fill="#575A89"/>
<path d="M241.742 83.2993L235.681 86.2531C235.681 86.2531 218.708 124.063 217.496 124.654C216.283 125.244 210.222 136.469 209.616 138.832C209.009 141.195 207.797 148.875 205.979 150.057C205.003 150.702 203.991 151.294 202.948 151.829C202.948 151.829 206.585 157.737 208.403 157.737C210.222 157.737 216.283 149.466 216.283 149.466C216.283 149.466 229.619 157.737 233.256 151.238C236.893 144.74 245.986 103.386 245.986 103.386L241.742 83.2993Z" fill="#575A89"/>
<path d="M289.326 101.318C289.326 101.318 280.84 81.2315 275.991 83.5946C271.141 85.9577 279.628 100.136 285.083 102.499L289.326 101.318Z" fill="#A0616A"/>
<path opacity="0.1" d="M280.84 101.909L289.345 100.035L291.145 108.998C291.145 108.998 299.025 122.586 297.207 128.494C295.388 134.401 284.477 143.854 280.84 138.537C277.203 133.22 274.172 124.949 276.597 120.223C279.022 115.497 282.659 104.272 280.84 101.909Z" fill="black"/>
<path d="M282.658 100.727L291.163 98.8533L292.963 107.816C292.963 107.816 300.843 121.404 299.025 127.312C297.206 133.22 286.295 142.672 282.658 137.355C279.021 132.038 275.991 123.767 278.415 119.041C280.84 114.315 284.477 103.09 282.658 100.727Z" fill="#575A89"/>
<path d="M291.893 59.48C293.526 56.0822 288.952 50.6347 281.676 47.3128C274.4 43.9909 267.178 44.0525 265.545 47.4503C263.911 50.8481 268.486 56.2955 275.761 59.6174C283.037 62.9393 290.26 62.8778 291.893 59.48Z" fill="#2F2E41"/>
<path d="M289.629 49.6251C294.316 49.6251 298.116 45.9221 298.116 41.3543C298.116 36.7864 294.316 33.0834 289.629 33.0834C284.943 33.0834 281.143 36.7864 281.143 41.3543C281.143 45.9221 284.943 49.6251 289.629 49.6251Z" fill="#2F2E41"/>
<path d="M281.749 38.4004C281.749 36.3605 282.523 34.3926 283.922 32.8749C285.32 31.3573 287.245 30.3969 289.326 30.1784C288.141 30.0523 286.942 30.1709 285.807 30.5266C284.672 30.8822 283.627 31.467 282.739 32.2427C281.852 33.0184 281.142 33.9677 280.656 35.0286C280.17 36.0896 279.918 37.2385 279.918 38.4004C279.918 39.5623 280.17 40.7111 280.656 41.7721C281.142 42.8331 281.852 43.7823 282.739 44.5581C283.627 45.3338 284.672 45.9185 285.807 46.2742C286.942 46.6298 288.141 46.7485 289.326 46.6223C287.245 46.4038 285.32 45.4434 283.922 43.9258C282.523 42.4082 281.749 40.4403 281.749 38.4004Z" fill="#2F2E41"/>
<path d="M251.441 163.645H39.2832V307.203H251.441V163.645Z" fill="#3F3D56"/>
<path d="M84.1395 177.823H56.2559V204.999H84.1395V177.823Z" fill="#F2F2F2"/>
<path d="M84.1395 222.131H56.2559V249.307H84.1395V222.131Z" fill="#0075FF"/>
<path d="M84.1395 266.439H56.2559V293.615H84.1395V266.439Z" fill="#F2F2F2"/>
<path d="M230.225 186.389H97.4751V188.753H230.225V186.389Z" fill="#F2F2F2"/>
<path d="M138.694 194.07H97.4751V196.433H138.694V194.07Z" fill="#F2F2F2"/>
<path d="M230.225 230.698H97.4751V233.061H230.225V230.698Z" fill="#F2F2F2"/>
<path d="M138.694 238.378H97.4751V240.741H138.694V238.378Z" fill="#F2F2F2"/>
<path d="M230.225 275.006H97.4751V277.369H230.225V275.006Z" fill="#F2F2F2"/>
<path d="M138.694 282.686H97.4751V285.049H138.694V282.686Z" fill="#F2F2F2"/>
<path d="M599.986 395.189C599.986 407.215 592.652 411.413 583.603 411.413C583.393 411.413 583.184 411.41 582.975 411.406C582.556 411.397 582.14 411.378 581.73 411.35C573.563 410.787 567.219 406.373 567.219 395.189C567.219 383.617 582.392 369.013 583.535 367.93L583.536 367.928C583.58 367.886 583.603 367.865 583.603 367.865C583.603 367.865 599.986 383.164 599.986 395.189Z" fill="#0075FF"/>
<path d="M583.006 409.573L588.998 401.414L582.99 410.47L582.975 411.406C582.556 411.397 582.14 411.378 581.73 411.35L582.375 399.32L582.371 399.226L582.381 399.21L582.443 398.072L576.42 388.994L582.461 397.22L582.476 397.461L582.963 388.371L577.808 378.99L583.027 386.776L583.535 367.93L583.536 367.865V367.928L583.452 382.789L588.585 376.898L583.431 384.069L583.295 392.208L588.089 384.397L583.275 393.406L583.2 397.931L590.156 387.059L583.173 399.509L583.006 409.573Z" fill="#3F3D56"/>
<path d="M68.3789 313.071C68.3789 325.097 61.0444 329.296 51.9954 329.296C51.7858 329.296 51.5762 329.293 51.3681 329.288C50.9489 329.28 50.5327 329.26 50.1225 329.232C41.9556 328.67 35.6118 324.255 35.6118 313.071C35.6118 301.499 50.7845 286.895 51.9275 285.812L51.929 285.811C51.9728 285.768 51.9954 285.747 51.9954 285.747C51.9954 285.747 68.3789 301.046 68.3789 313.071Z" fill="#0075FF"/>
<path d="M51.3986 327.456L57.391 319.296L51.3835 328.352L51.3684 329.288C50.9492 329.28 50.533 329.26 50.1229 329.232L50.7682 317.202L50.7637 317.108L50.7743 317.092L50.8361 315.954L44.8135 306.876L50.8542 315.102L50.8693 315.343L51.3563 306.253L46.2007 296.873L51.4197 304.659L51.9278 285.812L51.9293 285.747V285.811L51.8449 300.672L56.9779 294.78L51.8238 301.952L51.6881 310.091L56.4818 302.279L51.6685 311.288L51.5931 315.813L58.5491 304.941L51.5659 317.392L51.3986 327.456Z" fill="#3F3D56"/>
</svg>
