<svg width="600" height="206" viewBox="0 0 600 206" fill="none" xmlns="http://www.w3.org/2000/svg">
<path d="M115.393 205.467C60.2028 206.597 20.7228 176.337 5.79282 128.127C-8.68718 81.3473 4.73283 40.2273 37.6328 4.96732C43.3828 -1.19268 50.2228 -1.50269 55.0228 3.36731C59.9828 8.39731 59.5228 14.6773 53.1528 20.6573C38.7728 34.1673 27.7728 49.7173 22.1628 68.8873C7.14283 120.277 35.8328 174.927 83.1728 193.897C93.5828 198.077 104.283 201.507 115.393 205.467Z" fill="#0046FF"/>
<path d="M55.1628 163.707C29.6128 134.717 21.4628 102.757 36.3028 65.6973C51.1528 28.6173 93.2828 2.6273 136.543 5.5673C143.003 6.0073 146.813 9.64728 146.693 15.0473C146.573 20.4573 142.613 23.9973 136.163 24.0873C130.513 24.1773 124.863 23.9373 119.213 23.8773C82.7928 23.5073 45.3428 57.6373 40.4628 96.5573C37.6128 119.297 43.9628 139.467 53.0928 159.417C53.7628 160.867 54.4828 162.287 55.1628 163.707Z" fill="black"/>
<path d="M49.9728 121.527C47.2028 90.6873 58.2928 62.5273 87.5028 45.9473C118.893 28.1273 160.263 32.5473 187.343 56.4673C192.643 61.1473 193.703 66.0073 190.273 69.8373C186.903 73.6073 181.553 73.4173 176.583 68.4873C147.953 40.0873 104.013 43.1773 77.4628 66.6773C64.1628 78.4573 55.7328 93.2073 52.1328 110.657C51.3828 114.277 50.6928 117.907 49.9728 121.527Z" fill="#0046FF"/>
<path d="M241.743 100.647L241.823 100.727C241.813 100.717 241.743 100.647 241.743 100.647Z" fill="white"/>
<path d="M80.9728 98.2571C80.9728 87.2571 98.6728 86.8571 98.6728 98.2571V174.827C98.6728 185.957 80.9728 186.227 80.9728 174.827V98.2571Z" fill="black"/>
<path d="M212.253 150.957L232.233 95.7073C236.253 84.8473 252.483 89.9373 248.463 101.607L221.913 173.617C219.503 181.257 217.223 183.537 212.663 183.537C207.833 183.537 206.363 180.587 203.683 175.757L180.353 122.787L158.093 174.947C155.683 180.577 153.403 183.797 148.573 183.797C143.883 183.797 141.463 180.577 139.323 174.677L113.313 101.597C109.293 89.5273 126.323 85.1073 129.803 95.6973L149.653 150.947L173.393 95.6973C176.613 87.5173 185.063 87.1173 188.543 95.2973L212.253 150.957Z" fill="black"/>
<path d="M253.013 183.007C248.723 180.597 246.043 175.767 248.723 170.137L287.213 94.9071C290.833 87.7971 300.493 87.5271 303.843 94.9071L341.663 170.137C347.163 180.597 330.933 188.907 326.103 178.447L320.203 166.647H270.723L264.953 178.447C262.793 183.007 257.833 183.947 253.013 183.007ZM310.673 148.947L295.523 115.827L279.033 148.947H310.673Z" fill="black"/>
<path d="M352.233 110.327C355.313 84.3172 394.613 79.6172 413.113 93.8372C422.233 101.217 412.573 112.877 404.533 106.977C394.613 100.677 372.083 97.7273 369.263 111.667C365.643 133.657 423.973 121.057 423.033 156.727C422.093 190.787 372.743 191.597 354.243 176.307C349.813 172.687 349.953 166.787 352.363 163.167C355.853 159.677 359.743 158.477 364.293 162.227C375.293 169.737 403.583 175.367 405.593 156.327C403.863 136.477 348.083 148.407 352.233 110.327Z" fill="black"/>
<path d="M436.573 183.007C432.283 180.597 429.603 175.767 432.283 170.137L470.773 94.9071C474.393 87.7971 484.053 87.5271 487.403 94.9071L525.223 170.137C530.723 180.597 514.493 188.907 509.673 178.447L503.773 166.647H454.293L448.523 178.447C446.363 183.007 441.403 183.947 436.573 183.007ZM494.243 148.947L479.093 115.827L462.603 148.947H494.243Z" fill="#0046FF"/>
<path d="M551.093 106.977H527.623C515.953 106.977 515.953 89.8171 527.623 89.8171H591.053C602.983 89.8171 602.983 106.977 591.053 106.977H568.793V174.697C568.793 186.367 551.093 186.627 551.093 174.697V106.977V106.977Z" fill="#0046FF"/>
</svg>
